<svg width="31" height="34" viewBox="0 0 31 34" fill="none" xmlns="http://www.w3.org/2000/svg">
<g id="material-symbols-light:inventory">
<path id="Vector" d="M19.875 27.1861L15.4275 22.2445L16.3125 21.2611L19.875 25.2195L26.9862 17.3195L27.87 18.3014L19.875 27.1861ZM25.5 14.3889H24.25V8.30001C24.25 8.08613 24.17 7.88983 24.01 7.71112C23.85 7.53242 23.6733 7.44353 23.48 7.44446H20.5V10.5417H10.5V7.44446H7.52C7.3275 7.44446 7.15083 7.53335 6.99 7.71112C6.82917 7.8889 6.74917 8.0852 6.75 8.30001V26.0347C6.75 26.2477 6.83 26.4435 6.99 26.6222C7.15 26.8009 7.32625 26.8898 7.51875 26.8889H14.25V28.2778H7.52C6.96 28.2778 6.48333 28.0593 6.09 27.6222C5.69667 27.1852 5.5 26.656 5.5 26.0347V8.29862C5.5 7.67825 5.69667 7.14909 6.09 6.71112C6.48333 6.27409 6.96 6.05557 7.52 6.05557H13.315C13.4317 5.51298 13.6912 5.05696 14.0938 4.68751C14.4963 4.31714 14.965 4.13196 15.5 4.13196C16.045 4.13196 16.5175 4.31714 16.9175 4.68751C17.3175 5.05603 17.5758 5.51205 17.6925 6.05557H23.48C24.04 6.05557 24.5167 6.27409 24.91 6.71112C25.3033 7.14816 25.5 7.67779 25.5 8.30001V14.3889ZM15.5 7.7639C15.79 7.7639 16.0308 7.65788 16.2225 7.44585C16.4142 7.23288 16.51 6.96529 16.51 6.64307C16.51 6.32085 16.4142 6.05325 16.2225 5.84029C16.0308 5.62733 15.79 5.52085 15.5 5.52085C15.21 5.52085 14.9692 5.62733 14.7775 5.84029C14.5858 6.05325 14.49 6.32085 14.49 6.64307C14.49 6.96529 14.5858 7.23288 14.7775 7.44585C14.9692 7.65881 15.21 7.7639 15.5 7.7639Z" fill="#2D3748"/>
</g>
</svg>
